<?xml version="1.0" standalone="yes"?>
<svg xmlns="http://www.w3.org/2000/svg" width="275" height="248">
<path style="fill:#4e4f4f; stroke:none;" d="M42 71C43.7447 71.89 45.1249 72.4529 47 73C67.5337 42.5673 97.5706 22.776 135 22.054C146.09 21.8401 156.223 26.0591 167 27C158.469 20.6441 143.288 20.0007 133 20C106.884 19.9983 83.3679 28.3281 63 44.8048C54.958 51.3104 45.2102 60.9432 42 71M168 27C171.259 29.5239 175.009 31.0027 179 32C175.912 29.0036 172.212 27.7252 168 27M74 46C75.1741 48.0379 76.2448 50.1607 79.044 49.5448C82.7834 48.722 86.6127 45.0529 90 43.2338C98.1064 38.8804 106.87 34.9514 116 33.3218C139.37 29.1503 163.617 32.4357 184 45.2292C192.122 50.327 198.266 57.5517 206 63C176.678 20.4728 113.51 19.3677 74 46M218 56L214 59C218.589 69.8565 226.948 78.5581 230.922 90C240.072 116.343 239.234 145.931 226.216 171C221.002 181.041 213.409 188.865 207 198C216.858 193.197 224.255 179.426 229.219 170C243.698 142.51 244.925 108.406 232.576 80C228.903 71.553 224.63 62.5205 218 56M208 66L209 67L208 66M34.3333 94.6667C34.2778 94.7222 34.2222 95.7778 34.6667 95.3333C34.7222 95.2778 34.7778 94.2222 34.3333 94.6667M224 96C226.875 108.571 229.087 121.011 227.83 134C224.722 166.115 202.954 197.463 173 210C176.275 210.545 179.071 208.729 182 207.244C189.348 203.519 195.811 198.696 201.985 193.271C229.767 168.86 237.984 129.926 230 95L224 96M33.3333 98.6667C33.2777 98.7223 33.2222 99.7777 33.6667 99.3333C33.7222 99.2778 33.7778 98.2222 33.3333 98.6667M32 102L32 108C32.9511 105.715 32.9511 104.285 32 102M31 109C31 119.676 30.5067 130.511 32.8881 141C40.6436 175.158 65.8493 202.195 99 213C99.8806 210.979 100.496 209.146 101 207C69.6925 199.581 44.6834 172.197 35.7207 142C33.8178 135.589 32.5471 128.676 32.0895 122C31.7927 117.67 32.6973 113.045 31 109M24 134L24 137C24.6961 135.446 24.6961 135.554 24 134M25 138L25 141C25.6961 139.446 25.6961 139.554 25 138M26 143C26.8226 152.422 31.3073 161.753 35.706 170C47.4996 192.111 67.29 209.956 91 218.41C102.189 222.399 114.089 224.942 126 224.999C131.843 225.027 137.444 226.131 138 219C125.524 219 113.241 219.389 101 216.497C77.2257 210.88 56.5448 195.665 42.4282 176C38.5763 170.634 35.032 165.086 32.4275 159C30.1944 153.782 29.0146 147.791 26 143M205 199L204 201C205.263 200.029 205.392 200.306 205 199M202 202L203 203L202 202M168 212C169.659 212.406 170.242 212.309 172 212C170.341 211.594 169.758 211.691 168 212z"/>
</svg>
